<svg xmlns="http://www.w3.org/2000/svg" viewBox="0 0 112.14697 12.09717"><defs><style>.a{fill:#c7c7c7;}</style></defs><title>logo</title><path class="a" d="M5.88721,13.17773a2.02483,2.02483,0,0,1-.76612.44336,3.01854,3.01854,0,0,1-.95947.15332,2.273,2.273,0,0,1-1.69385-.605,2.29482,2.29482,0,0,1-.59668-1.68554v-5.5H.32275V5.29053H1.87109V3.45166h.80664V5.29053H5.355v.69336H2.67773v5.41943a1.77781,1.77781,0,0,0,.395,1.25,1.51429,1.51429,0,0,0,1.16944.42773,1.87106,1.87106,0,0,0,1.30615-.46777Z" transform="translate(-0.32275 -1.7417)"/><path class="a" d="M14.74219,6.145a3.58262,3.58262,0,0,1,.91943,2.64551V13.71H14.855V8.855a2.98733,2.98733,0,0,0-.71777-2.16113,2.66381,2.66381,0,0,0-2.00782-.74219,3.09547,3.09547,0,0,0-2.33886.88721,3.29348,3.29348,0,0,0-.855,2.3872V13.71H8.12939V1.7417h.80616V7.04834a3.09112,3.09112,0,0,1,1.29052-1.34668,4.083,4.083,0,0,1,2.01612-.47559A3.37824,3.37824,0,0,1,14.74219,6.145Z" transform="translate(-0.32275 -1.7417)"/><path class="a" d="M26.11328,9.69385H18.87109a3.51719,3.51719,0,0,0,.5,1.75,3.20256,3.20256,0,0,0,1.26612,1.18554,3.80627,3.80627,0,0,0,1.79883.41944A3.85631,3.85631,0,0,0,23.96,12.75049a2.972,2.972,0,0,0,1.16943-.8794l.46778.53223a3.5866,3.5866,0,0,1-1.37891,1.01611,4.80227,4.80227,0,0,1-4.04053-.19336A3.97352,3.97352,0,0,1,18.63721,11.71a4.35627,4.35627,0,0,1-.55616-2.21A4.578,4.578,0,0,1,18.605,7.29834a3.86639,3.86639,0,0,1,1.44385-1.52393,4.17322,4.17322,0,0,1,4.12109-.0083,3.8417,3.8417,0,0,1,1.43555,1.5083,4.53432,4.53432,0,0,1,.52392,2.19336ZM20.5166,6.33057a3.00816,3.00816,0,0,0-1.13721,1.11328,3.62146,3.62146,0,0,0-.49218,1.6206h6.45215a3.37966,3.37966,0,0,0-.48389-1.61279,3.134,3.134,0,0,0-2.74219-1.51611A3.2271,3.2271,0,0,0,20.5166,6.33057Z" transform="translate(-0.32275 -1.7417)"/><path d="M34.67773,5.86279A3.67419,3.67419,0,0,1,35.7583,8.7583V13.71h-2.355V12.62939a2.804,2.804,0,0,1-2.645,1.20948,4.108,4.108,0,0,1-1.73389-.33838,2.58561,2.58561,0,0,1-1.12109-.93555,2.43369,2.43369,0,0,1-.38721-1.355,2.26016,2.26016,0,0,1,.91162-1.90332,4.64269,4.64269,0,0,1,2.81446-.69385h2a1.60489,1.60489,0,0,0-.5-1.26611,2.2043,2.2043,0,0,0-1.5-.44336,4.38114,4.38114,0,0,0-1.3628.21777,3.59478,3.59478,0,0,0-1.1372.58887l-.90332-1.7583a5.46636,5.46636,0,0,1,1.70166-.77441,7.62848,7.62848,0,0,1,2.04052-.27393A4.51742,4.51742,0,0,1,34.67773,5.86279Zm-2.145,5.98438a1.63475,1.63475,0,0,0,.70948-.8794v-.88672H31.51611q-1.54833,0-1.54834,1.01612a.90473.90473,0,0,0,.3794.76611,1.707,1.707,0,0,0,1.04.28223A2.19456,2.19456,0,0,0,32.53271,11.84717Z" transform="translate(-0.32275 -1.7417)"/><path d="M38.03223,1.7417h2.5166V13.71h-2.5166Z" transform="translate(-0.32275 -1.7417)"/><path d="M50.21826,5.45947A4.001,4.001,0,0,1,51.7749,7.02441a4.72609,4.72609,0,0,1,.56446,2.34668,4.726,4.726,0,0,1-.56446,2.34668,3.99764,3.99764,0,0,1-1.55664,1.56494,4.42491,4.42491,0,0,1-2.20166.55616A3.337,3.337,0,0,1,45.29053,12.71v1H42.88721V1.7417h2.5166v4.21A3.35162,3.35162,0,0,1,48.0166,4.90332,4.425,4.425,0,0,1,50.21826,5.45947Zm-1.04834,5.66162a2.43647,2.43647,0,0,0,.6211-1.75,2.4373,2.4373,0,0,0-.6211-1.75,2.25871,2.25871,0,0,0-3.17773,0,2.43492,2.43492,0,0,0-.62061,1.75,2.43409,2.43409,0,0,0,.62061,1.75,2.25871,2.25871,0,0,0,3.17773,0Z" transform="translate(-0.32275 -1.7417)"/><path d="M62.46875,10.08105H55.90381a2.04265,2.04265,0,0,0,.83887,1.27393,2.77667,2.77667,0,0,0,1.645.46777,3.32415,3.32415,0,0,0,1.20166-.20166,2.9072,2.9072,0,0,0,.97607-.6372l1.33887,1.45166a4.50015,4.50015,0,0,1-3.58106,1.40332,5.66145,5.66145,0,0,1-2.59668-.57227,4.19928,4.19928,0,0,1-1.74218-1.58887,4.37754,4.37754,0,0,1-.6128-2.30664,4.435,4.435,0,0,1,.605-2.29834A4.23729,4.23729,0,0,1,55.6377,5.47607a5.143,5.143,0,0,1,4.66943-.02441,4.004,4.004,0,0,1,1.62109,1.57275,4.68713,4.68713,0,0,1,.58887,2.37891Q62.51709,9.45166,62.46875,10.08105ZM56.58154,7.29053a2.05911,2.05911,0,0,0-.71,1.32226H60.146a2.08194,2.08194,0,0,0-.70948-1.31445,2.124,2.124,0,0,0-1.41943-.4917A2.16468,2.16468,0,0,0,56.58154,7.29053Z" transform="translate(-0.32275 -1.7417)"/><path d="M67.81494,5.22607a4.515,4.515,0,0,1,1.76611-.32275V7.22607q-.41894-.03222-.56445-.03222a2.30584,2.30584,0,0,0-1.69336.60449,2.44507,2.44507,0,0,0-.61279,1.81494V13.71h-2.5166V5.03223h2.40332v1.145A2.79984,2.79984,0,0,1,67.81494,5.22607Z" transform="translate(-0.32275 -1.7417)"/><path d="M76.98486,13.29053a2.57465,2.57465,0,0,1-.91113.41113,4.61843,4.61843,0,0,1-1.13721.13721,3.37906,3.37906,0,0,1-2.3955-.79,3.02484,3.02484,0,0,1-.84668-2.32276V7.16162H70.35547V5.22607h1.33887V3.11279h2.51611V5.22607h2.16162V7.16162H74.21045v3.53223a1.18461,1.18461,0,0,0,.28223.84668,1.04441,1.04441,0,0,0,.79834.29834,1.61707,1.61707,0,0,0,1.0166-.32276Z" transform="translate(-0.32275 -1.7417)"/><path d="M78.4043,13.38721a1.5303,1.5303,0,0,1-.45166-1.12891,1.47215,1.47215,0,0,1,.45166-1.12109,1.66342,1.66342,0,0,1,2.22607,0A1.4739,1.4739,0,0,1,81.082,12.2583a1.5322,1.5322,0,0,1-.45166,1.12891,1.59727,1.59727,0,0,1-2.22607,0Z" transform="translate(-0.32275 -1.7417)"/><path class="a" d="M91.51758,1.7417V13.71H89.11426v-1a3.31861,3.31861,0,0,1-2.71,1.12891,4.50381,4.50381,0,0,1-2.21778-.54834,3.92749,3.92749,0,0,1-1.55664-1.56446,4.76756,4.76756,0,0,1-.56445-2.355,4.76892,4.76892,0,0,1,.56445-2.355,3.93056,3.93056,0,0,1,1.55664-1.56445,4.50909,4.50909,0,0,1,2.21778-.54834A3.30112,3.30112,0,0,1,89.001,5.95166v-4.21Zm-3.09717,9.37939a2.41613,2.41613,0,0,0,.62939-1.75,2.417,2.417,0,0,0-.62939-1.75,2.25809,2.25809,0,0,0-3.17725,0,2.417,2.417,0,0,0-.62939,1.75,2.41613,2.41613,0,0,0,.62939,1.75,2.25809,2.25809,0,0,0,3.17725,0Z" transform="translate(-0.32275 -1.7417)"/><path class="a" d="M102.292,10.08105H95.72705a2.04265,2.04265,0,0,0,.83887,1.27393,2.77671,2.77671,0,0,0,1.645.46777,3.32415,3.32415,0,0,0,1.20166-.20166,2.9071,2.9071,0,0,0,.97607-.6372l1.33887,1.45166a4.50013,4.50013,0,0,1-3.58106,1.40332,5.66148,5.66148,0,0,1-2.59668-.57227,4.19934,4.19934,0,0,1-1.74218-1.58887,4.37763,4.37763,0,0,1-.6128-2.30664,4.435,4.435,0,0,1,.605-2.29834,4.23736,4.23736,0,0,1,1.66114-1.59668,5.143,5.143,0,0,1,4.66943-.02441,4.004,4.004,0,0,1,1.62109,1.57275,4.68713,4.68713,0,0,1,.58887,2.37891Q102.34033,9.45166,102.292,10.08105Zm-5.8872-2.79052a2.05908,2.05908,0,0,0-.71,1.32226h4.27442a2.082,2.082,0,0,0-.70947-1.31445,2.124,2.124,0,0,0-1.41944-.4917A2.16463,2.16463,0,0,0,96.40479,7.29053Z" transform="translate(-0.32275 -1.7417)"/><path class="a" d="M112.46973,5.03223,108.80859,13.71h-2.59716l-3.645-8.67773h2.59668l2.40332,5.90332,2.48388-5.90332Z" transform="translate(-0.32275 -1.7417)"/></svg>